<svg xmlns="http://www.w3.org/2000/svg" width="1600" height="900" viewBox="0 0 1600 900" role="img" aria-labelledby="title desc">
  <title id="title">Abstract tech background</title>
  <desc id="desc">Decorative gradient background with soft shapes and lines.</desc>
  <defs>
    <linearGradient id="bg" x1="0%" y1="0%" x2="100%" y2="100%">
      <stop offset="0%" stop-color="#0f172a"/>
      <stop offset="50%" stop-color="#1e293b"/>
      <stop offset="100%" stop-color="#111827"/>
    </linearGradient>
    <radialGradient id="glowA" cx="50%" cy="50%" r="50%">
      <stop offset="0%" stop-color="#eb973d" stop-opacity="0.75"/>
      <stop offset="100%" stop-color="#eb973d" stop-opacity="0"/>
    </radialGradient>
    <radialGradient id="glowB" cx="50%" cy="50%" r="50%">
      <stop offset="0%" stop-color="#38bdf8" stop-opacity="0.45"/>
      <stop offset="100%" stop-color="#38bdf8" stop-opacity="0"/>
    </radialGradient>
  </defs>
  <rect width="1600" height="900" fill="url(#bg)"/>
  <circle cx="1180" cy="180" r="240" fill="url(#glowA)"/>
  <circle cx="330" cy="760" r="280" fill="url(#glowB)"/>
  <g fill="none" stroke="#ffffff" stroke-opacity="0.12">
    <path d="M110 710C320 540 480 480 720 500s390 110 770-120" stroke-width="2"/>
    <path d="M40 640C250 470 410 410 650 430s420 120 860-140" stroke-width="1.5"/>
    <path d="M220 140C470 250 610 300 840 250s320-160 520-130" stroke-width="1.5"/>
  </g>
  <g fill="#ffffff" fill-opacity="0.28">
    <circle cx="420" cy="260" r="6"/>
    <circle cx="610" cy="390" r="4"/>
    <circle cx="870" cy="338" r="5"/>
    <circle cx="1110" cy="520" r="6"/>
    <circle cx="1320" cy="280" r="4"/>
    <circle cx="980" cy="720" r="5"/>
  </g>
</svg>
