<svg xmlns="http://www.w3.org/2000/svg" viewBox="0 0 128 128" role="img" aria-labelledby="title">
  <title id="title">Shopify</title>
  <rect width="128" height="128" rx="28" fill="#95BF47"/>
  <path fill="#fff" d="M86.8 42.1c-.1-.8-.7-1.4-1.5-1.6-.6-.1-1.2-.2-1.9-.3-1.2-3.6-3.1-6.9-6.2-9.1-2.4-1.8-5.4-2.6-8.6-2.3-.3-.5-.7-.9-1.2-1.1-2.1-.9-4.6-.5-7 1.1-3.4 2.2-6.7 6.1-9.4 11.1-1.9.1-3.7.2-5.4.4-4.2.4-4.3.5-4.9 4.4L33.5 92c-.4 2.6.2 3.1 2.6 3.5l43.2 8c2.9.5 3.8-.1 4.3-2.9l7.7-56.2c.1-.7 0-1.4-.5-2.3ZM64.8 34c1.1-.7 2.1-1 3-.9-1.4 2-2.6 4.8-3.6 8.1-2 .1-4 .2-6 .4 1.8-3.3 4.1-6 6.6-7.6Zm-9.6 9.3c1.8-.1 3.7-.3 5.6-.4-.8 3.7-1.4 8-1.7 12.8l-8 .5c1.2-4.7 2.7-9.1 4.1-12.9Zm16 50.2c-11.1 0-17.2-6.1-17.2-6.1l2.4-7.5s6.1 5.2 12.7 5.2c3.4 0 4.8-1.7 4.8-3.2 0-4.6-10.5-4.2-10.5-13.4 0-7.8 5.5-12.9 13.2-12.9 8.9 0 13.4 4.4 13.4 4.4l-3.5 6.7s-4-3.5-9.3-3.5c-2.4 0-4.9 1-4.9 3.4 0 4.3 10.5 3.5 10.5 12.8 0 8.8-6.3 14.1-15.6 14.1Z"/>
</svg>
