<svg xmlns="http://www.w3.org/2000/svg" viewBox="0 0 128 128" role="img" aria-labelledby="title">
  <title id="title">WooCommerce</title>
  <rect width="128" height="128" rx="28" fill="#7F54B3"/>
  <path fill="#fff" d="M24 40h80c6.6 0 12 5.4 12 12v24c0 6.6-5.4 12-12 12H24c-6.6 0-12-5.4-12-12V52c0-6.6 5.4-12 12-12Zm14.6 15.5 6.2 19.5 6.5-19.5h6.4L49 84H40l-8-28.5h6.6Zm25.7 0c8.4 0 13 5.6 13 14.3 0 8.8-4.6 14.4-13 14.4-8.4 0-13-5.6-13-14.4 0-8.7 4.6-14.3 13-14.3Zm0 5.4c-4.3 0-6.4 3.2-6.4 8.9 0 5.8 2.1 9 6.4 9 4.4 0 6.5-3.2 6.5-9 0-5.7-2.1-8.9-6.5-8.9Zm25.7-5.4c8.4 0 13 5.6 13 14.3 0 8.8-4.6 14.4-13 14.4-8.4 0-13-5.6-13-14.4 0-8.7 4.6-14.3 13-14.3Zm0 5.4c-4.3 0-6.4 3.2-6.4 8.9 0 5.8 2.1 9 6.4 9 4.4 0 6.5-3.2 6.5-9 0-5.7-2.1-8.9-6.5-8.9Z"/>
</svg>
